<svg xmlns="http://www.w3.org/2000/svg" fill="none" viewBox="0 0 1197 347">
    <path fill="#D1DEFF" d="M0 0h1197v332H0z"/>
    <path fill="#4259AA"
          d="M527 119c8 0 13 2 17 5s6 7 6 12-2 10-5 14-7 6-12 8l9 10c3 4 4 8 4 11 0 8-3 14-9 18s-15 6-25 6c-11 0-19-2-24-6-6-4-8-9-8-14 0-6 1-11 3-15 3-5 6-7 9-7l4 2 4 11 4 7c5 5 11 7 20 7-1-4-3-8-6-11a350 350 0 0 0-17-19c-2-3-3-7-3-12 0-8 3-15 9-20 6-4 12-7 20-7Zm-1 32c5-5 7-9 7-12l-1-3c-1-2-3-2-5-2l-5 1-4 1c0 4 3 9 8 15Zm70 32c9 0 18-3 26-10l8-7 4-4c2 0 2 2 2 5s0 7-2 11l-9 11c-9 9-23 14-40 14-14 0-23-5-28-15l-2-14c0-7 1-13 4-20a45 45 0 0 1 24-30c5-2 11-4 17-4 7 0 11 2 15 5 3 3 5 7 5 12s-1 9-4 12l-9 8-13 5-14 6v4c0 4 2 7 5 9l11 2Zm-3-48c-6 0-10 7-12 21a202 202 0 0 1 12-8c4-2 6-5 6-8s-2-5-6-5Zm81 55c-6 7-14 11-23 11-8 0-14-1-19-4-4-4-7-9-7-16l2-8 4-9 5-41c3-3 8-4 14-4 5 0 8 3 9 10v8l-1 8c-5 16-7 27-7 32 0 4 3 6 7 6 5 0 9-1 11-5l6-11a502 502 0 0 1 13-46c1-3 3-4 6-4 4 0 7 2 9 7 3 4 5 7 5 10 0 8-5 28-15 60a160 160 0 0 0 28-29l4-3c2 0 3 2 3 6 0 7-4 15-12 25-8 9-18 17-30 22l-4 13-6 11c-6 6-14 10-25 10-8 0-14-2-20-7-5-4-7-9-7-16 0-4 1-6 3-9l10-5 15-4 19-4 3-14Zm-23 46c5 0 10-5 14-14a131 131 0 0 1-19 3c-5 0-7 1-7 3s2 4 4 6l8 2Z"/>
    <path fill="#5882EE"
          d="M527 108c8 0 13 2 17 5s6 7 6 12-2 10-5 14-7 6-12 8l9 10c3 4 4 8 4 11 0 8-3 14-9 18s-15 6-25 6c-11 0-19-2-24-6-6-4-8-9-8-14 0-6 1-11 3-15 3-5 6-7 9-7l4 2 4 11 4 7c5 5 11 7 20 7-1-4-3-8-6-11a350 350 0 0 0-17-19c-2-3-3-7-3-12 0-8 3-15 9-20 6-4 12-7 20-7Zm-1 32c5-5 7-9 7-12l-1-3c-1-2-3-2-5-2l-5 1-4 1c0 4 3 9 8 15Zm70 32c9 0 18-3 26-10l8-7 4-4c2 0 2 2 2 5s0 7-2 11l-9 11c-9 9-23 14-40 14-14 0-23-5-28-15l-2-14c0-7 1-13 4-20a45 45 0 0 1 24-30c5-2 11-4 17-4 7 0 11 2 15 5 3 3 5 7 5 12s-1 9-4 12l-9 8-13 5-14 6v4c0 4 2 7 5 9l11 2Zm-3-48c-6 0-10 7-12 21a202 202 0 0 1 12-8c4-2 6-5 6-8s-2-5-6-5Zm81 55c-6 7-14 11-23 11-8 0-14-1-19-4-4-4-7-9-7-16l2-8 4-9 5-41c3-3 8-4 14-4 5 0 8 3 9 10v8l-1 8c-5 16-7 27-7 32 0 4 3 6 7 6 5 0 9-1 11-5l6-11a502 502 0 0 1 13-46c1-3 3-4 6-4 4 0 7 2 9 7 3 4 5 7 5 10 0 8-5 28-15 60a160 160 0 0 0 28-29l4-3c2 0 3 2 3 6 0 7-4 15-12 25-8 9-18 17-30 22l-4 13-6 11c-6 6-14 10-25 10-8 0-14-2-20-7-5-4-7-9-7-16 0-4 1-6 3-9l10-5 15-4 19-4 3-14Zm-23 46c5 0 10-5 14-14a131 131 0 0 1-19 3c-5 0-7 1-7 3s2 4 4 6l8 2Z"/>
</svg>
